<?xml version="1.0" standalone="no"?>
<!DOCTYPE svg PUBLIC "-//W3C//DTD SVG 20010904//EN"
 "http://www.w3.org/TR/2001/REC-SVG-20010904/DTD/svg10.dtd">
<svg version="1.0" xmlns="http://www.w3.org/2000/svg"
 width="1184.000000pt" height="1184.000000pt" viewBox="0 0 1184.000000 1184.000000"
 preserveAspectRatio="xMidYMid meet">
<metadata>
Created by potrace 1.14, written by Peter Selinger 2001-2017
</metadata>
<g transform="translate(0.000000,1184.000000) scale(0.100000,-0.100000)"
fill="#000000" stroke="none">
<path d="M2760 11811 c4 -16 6 -32 3 -35 -9 -8 -9 -100 -1 -118 7 -15 23 -17
116 -16 59 1 113 -1 119 -5 6 -4 14 -4 16 0 5 7 114 9 142 3 6 -1 12 -2 15 -1
5 2 309 3 343 2 16 -1 17 -89 17 -1706 l0 -1705 -384 0 -384 0 -4 -24 c-3 -13
-1 -31 4 -40 5 -9 5 -16 1 -16 -7 0 -9 -85 -3 -100 1 -3 2 -8 1 -12 0 -5 160
-8 357 -8 196 1 369 1 385 0 l27 0 -3 -2527 c-1 -1391 -5 -2539 -9 -2553 -4
-14 -9 -43 -12 -65 -5 -44 -29 -121 -52 -172 -8 -17 -14 -36 -14 -42 0 -6 -4
-11 -9 -11 -5 0 -13 -9 -16 -20 -19 -59 -166 -167 -250 -184 -70 -14 -112 -19
-150 -18 -99 2 -175 7 -175 12 0 3 -15 6 -33 7 -79 6 -179 63 -202 115 -22 54
1 135 56 202 5 6 19 22 30 36 39 46 76 104 100 155 18 40 23 68 23 140 1 110
-4 138 -40 212 -102 207 -365 297 -581 198 -78 -35 -162 -124 -207 -217 -36
-76 -41 -88 -54 -158 -18 -91 -5 -247 28 -325 53 -128 88 -186 170 -278 57
-65 195 -161 221 -154 4 1 15 -5 25 -14 17 -14 127 -59 146 -60 4 0 24 -7 43
-15 68 -28 191 -47 317 -48 43 -1 78 -4 78 -7 0 -3 17 -4 38 -2 20 1 75 5 122
8 79 4 102 7 170 20 14 3 34 7 45 9 11 2 40 10 65 17 25 7 48 13 53 15 4 1 9
3 12 4 3 1 8 3 13 4 55 12 280 117 293 138 3 5 10 10 15 10 35 -1 281 213 372
323 58 71 148 208 187 285 21 41 43 78 48 81 5 3 8 9 7 13 -1 4 10 37 23 74
30 79 59 177 63 212 2 14 6 35 9 48 3 12 8 44 11 70 3 26 8 60 11 77 2 16 5
1010 6 2208 l1 2177 73 0 c94 1 314 1 356 0 l32 0 -2 -3848 c-1 -2116 -2
-3856 -2 -3868 -1 -20 -4 -20 -368 -19 -203 0 -375 -1 -384 -3 -13 -3 -16 -20
-16 -100 l0 -97 1266 0 1266 0 0 100 0 99 -402 0 -403 0 -1 30 c-1 43 -1 2537
0 2556 1 14 38 15 304 13 166 -1 311 -4 322 -6 11 -2 42 -7 69 -11 176 -30
360 -150 460 -300 41 -61 108 -193 131 -257 20 -56 75 -212 76 -219 1 -3 3 -9
4 -15 8 -29 26 -102 29 -115 2 -8 6 -26 9 -40 4 -14 9 -36 11 -50 3 -14 8 -38
11 -55 36 -185 51 -349 60 -640 5 -152 15 -272 28 -325 2 -8 8 -33 12 -55 11
-49 10 -47 18 -65 3 -8 13 -40 23 -70 19 -63 92 -213 105 -218 5 -2 9 -10 9
-18 0 -8 5 -14 10 -14 6 0 10 -5 10 -10 0 -26 135 -157 217 -212 32 -21 63
-42 70 -48 7 -5 18 -10 26 -10 7 0 17 -4 22 -9 22 -22 211 -86 285 -97 19 -3
41 -7 48 -9 56 -19 372 -27 497 -12 39 5 81 10 95 12 29 3 108 16 130 21 8 2
35 8 60 15 25 6 54 12 64 15 54 11 146 45 236 88 44 21 210 126 236 149 7 7
29 25 48 40 97 78 201 269 232 427 16 81 9 232 -14 305 -10 33 -65 149 -85
179 -30 47 -128 129 -187 157 -55 27 -79 32 -150 35 -160 5 -289 -51 -381
-168 -59 -75 -82 -146 -84 -263 -2 -55 1 -104 5 -110 4 -5 10 -23 14 -39 12
-50 73 -131 149 -198 99 -87 115 -105 137 -155 37 -84 -3 -155 -119 -208 -147
-68 -325 -60 -453 21 -91 58 -179 178 -211 289 -8 29 -15 103 -16 175 -6 285
-19 527 -35 610 -2 14 -7 50 -11 80 -4 30 -9 64 -11 75 -1 11 -5 34 -8 50 -28
169 -109 411 -182 541 -15 27 -32 58 -38 69 -6 11 -13 22 -16 25 -3 3 -23 30
-45 60 -36 51 -156 175 -220 228 -102 84 -309 192 -467 243 -63 20 -220 63
-268 73 -14 3 -36 8 -50 11 -14 3 -38 7 -55 10 -61 10 -69 12 -72 21 -2 6 12
11 30 12 18 1 74 9 123 18 49 8 103 17 119 19 34 5 69 12 93 19 9 3 35 7 57
11 66 9 99 15 117 21 17 5 42 10 92 19 48 9 268 86 319 111 26 14 47 22 47 18
0 -3 13 4 29 15 16 12 36 21 45 21 9 0 16 3 16 8 0 4 14 13 31 21 45 20 185
115 249 170 123 105 226 232 291 361 50 97 95 225 104 295 1 11 5 31 8 45 23
98 23 338 0 450 -2 14 -6 32 -7 40 -2 8 -9 35 -15 60 -7 25 -12 45 -11 45 7 0
-77 181 -109 235 -68 114 -192 254 -287 325 -21 17 -50 40 -64 53 -14 12 -30
22 -37 22 -7 0 -13 4 -13 8 0 5 -10 14 -22 21 -13 6 -45 25 -73 41 -27 17 -79
44 -115 60 -36 17 -72 35 -82 40 -18 10 -173 71 -191 74 -7 2 -19 5 -27 8 -48
17 -139 40 -240 62 -115 25 -152 31 -265 42 -110 10 -111 18 -4 39 41 8 85 17
99 20 14 3 37 7 52 10 15 3 38 9 51 14 14 6 28 7 31 4 3 -4 6 -2 6 3 0 5 11
10 25 10 14 1 33 5 43 10 21 9 20 9 57 19 68 18 243 90 333 137 54 28 107 55
119 62 13 6 23 14 23 19 0 4 5 7 10 7 10 0 52 27 87 55 7 6 27 21 45 35 56 42
206 198 223 230 8 16 20 30 25 30 6 0 10 6 10 13 0 7 9 23 20 35 12 12 18 22
15 22 -3 0 5 19 18 43 146 265 146 686 1 985 -25 51 -59 114 -76 140 -34 51
-213 235 -238 244 -8 3 -35 21 -60 39 -100 74 -366 191 -485 214 -11 2 -20 4
-20 5 0 8 -290 67 -375 75 -14 2 -25 4 -25 5 0 1 -20 3 -45 6 -25 2 -58 6 -75
8 -201 23 -274 24 -1520 25 l-1091 1 0 355 c0 195 3 355 6 356 3 1 248 2 545
4 477 2 599 5 720 20 17 2 54 6 84 9 30 3 62 8 70 11 9 2 34 7 56 10 41 5 50
7 125 24 25 5 56 12 70 14 27 5 155 41 200 57 39 13 55 17 60 17 3 0 25 10 50
23 25 13 46 22 47 22 3 -1 63 24 123 52 22 10 118 64 175 99 38 23 140 101
179 137 123 113 205 219 271 351 38 75 103 259 110 313 2 17 7 56 11 86 15
107 6 452 -11 480 -3 4 -7 22 -9 41 -3 19 -10 52 -16 74 -6 22 -12 47 -14 55
-13 53 -74 190 -115 259 -79 132 -177 240 -300 334 -31 23 -57 45 -59 50 -2 4
-9 7 -15 7 -6 0 -18 6 -26 14 -21 18 -201 109 -271 136 -105 41 -314 105 -375
115 -50 8 -152 26 -175 31 -14 3 -36 7 -50 8 -14 2 -48 7 -77 11 -29 3 -78 9
-110 11 -32 3 -80 7 -108 11 -27 3 -701 8 -1497 10 l-1447 4 9 -30z m2840
-195 c78 -10 101 -14 138 -25 17 -5 32 -8 32 -6 0 3 37 -11 82 -30 99 -42 168
-87 231 -150 46 -46 107 -126 107 -141 0 -4 6 -15 13 -23 30 -35 86 -199 102
-296 3 -16 8 -41 10 -55 3 -14 7 -36 10 -50 10 -53 19 -253 19 -430 -1 -211
-3 -256 -16 -357 -5 -40 -11 -87 -13 -105 -11 -91 -55 -245 -95 -331 -16 -36
-30 -70 -30 -75 0 -6 -3 -12 -7 -14 -5 -1 -26 -29 -47 -61 -44 -66 -114 -136
-178 -179 -47 -31 -121 -68 -137 -68 -6 0 -11 -5 -11 -12 0 -6 -3 -9 -6 -5 -3
3 -23 -1 -45 -8 -123 -44 -179 -46 -890 -45 l-335 0 1 1238 c1 680 3 1237 3
1237 36 4 1024 -4 1062 -9z m1140 -3610 c356 -32 548 -114 694 -296 58 -73
148 -297 161 -400 1 -14 6 -47 10 -75 4 -27 8 -64 9 -81 2 -17 6 -36 10 -42 4
-7 3 -12 -3 -12 -6 0 -7 -11 -2 -27 13 -51 3 -413 -15 -507 -3 -17 -8 -42 -9
-56 -26 -188 -136 -414 -256 -525 -72 -67 -208 -148 -269 -160 -8 -2 -28 -8
-43 -14 -15 -6 -40 -13 -55 -16 -15 -2 -52 -9 -82 -15 -30 -6 -91 -13 -135
-16 -43 -3 -82 -7 -86 -10 -4 -2 -10 0 -14 6 -4 6 -10 8 -15 5 -16 -10 -70
-12 -70 -3 0 5 -6 6 -12 1 -18 -10 -70 -10 -85 1 -7 4 -13 5 -13 0 0 -5 -29
-9 -65 -9 -36 0 -65 4 -65 8 0 5 -6 5 -12 0 -18 -10 -70 -10 -85 1 -7 4 -13 5
-13 0 0 -5 -22 -9 -50 -9 -27 0 -50 2 -50 5 0 3 -13 5 -30 5 -16 0 -30 -3 -30
-6 0 -3 -15 -4 -32 -2 -50 5 -71 5 -88 2 -11 -3 -16 5 -17 29 -2 27 -3 202 -2
245 1 6 0 23 -1 37 -1 23 -2 289 -1 325 2 31 2 53 2 160 0 61 0 115 0 120 1 6
0 21 -1 35 -1 23 -2 289 -1 325 2 31 2 53 2 160 0 61 0 115 0 120 1 6 0 21 -1
35 -1 23 -2 287 0 328 0 9 0 37 -1 62 -1 48 -1 70 1 196 l2 82 386 -4 c213 -2
407 -6 432 -8z m100 -2419 c56 -7 112 -18 163 -32 26 -8 47 -11 47 -7 0 3 5 1
12 -6 7 -7 18 -12 24 -12 20 0 134 -55 191 -93 83 -54 213 -185 213 -215 0 -6
4 -12 9 -14 10 -4 83 -157 102 -213 14 -43 15 -47 23 -85 3 -14 9 -38 13 -55
4 -16 7 -32 8 -35 1 -3 5 -32 9 -65 4 -32 10 -68 12 -80 4 -15 14 -212 15
-280 1 -31 -11 -276 -15 -310 -32 -291 -101 -502 -209 -645 -53 -69 -152 -160
-174 -160 -7 0 -13 -4 -13 -8 0 -7 -100 -55 -120 -58 -3 0 -24 -6 -47 -13 -78
-22 -163 -25 -673 -25 l-505 -1 -2 105 c-1 58 -2 107 -3 110 0 3 0 129 0 280
0 151 0 320 0 375 -1 55 -1 107 -1 115 1 8 1 35 0 60 -1 25 -1 63 -1 85 1 22
1 103 1 180 0 236 0 276 1 390 1 61 0 115 -1 120 -1 6 -1 13 0 17 1 11 2 291
1 303 -1 6 -1 60 0 120 1 61 2 117 2 125 0 8 1 20 3 26 2 8 126 10 442 8 241
-1 454 -5 473 -7z"/>
</g>
</svg>
