<svg width="1056" height="598" viewBox="0 0 1056 598" fill="none" xmlns="http://www.w3.org/2000/svg">
<mask id="mask0_126_794" style="mask-type:alpha" maskUnits="userSpaceOnUse" x="0" y="0" width="1056" height="598">
<rect y="0.914062" width="1056" height="597.085" fill="white"/>
</mask>
<g mask="url(#mask0_126_794)">
<path d="M1031.5 566.153C1031.5 842.873 806.078 1067.2 528 1067.2C249.922 1067.2 24.5 842.873 24.5 566.153C24.5 289.432 249.922 65.1016 528 65.1016C806.078 65.1016 1031.5 289.432 1031.5 566.153Z" stroke="#F84D35"/>
<path d="M528 866.185C527.157 866.185 526.316 866.182 525.475 866.175L525.471 866.675C523.786 866.661 522.104 866.634 520.426 866.593L520.439 866.093C518.763 866.052 517.091 865.997 515.423 865.929L515.403 866.429C513.724 866.36 512.049 866.278 510.378 866.182L510.406 865.683C508.727 865.587 507.052 865.477 505.38 865.354L505.343 865.852C503.669 865.729 501.998 865.591 500.332 865.441L500.377 864.943C498.707 864.792 497.041 864.628 495.38 864.45L495.326 864.947C493.652 864.768 491.981 864.575 490.315 864.368L490.376 863.872C488.713 863.666 487.053 863.446 485.398 863.213L485.329 863.708C483.666 863.474 482.008 863.227 480.354 862.966L480.432 862.472C478.772 862.211 477.116 861.935 475.465 861.646L475.379 862.139C473.725 861.85 472.076 861.547 470.431 861.231L470.525 860.74C468.879 860.424 467.238 860.095 465.602 859.752L465.499 860.241C463.852 859.896 462.21 859.538 460.572 859.167L460.683 858.679C459.049 858.308 457.419 857.924 455.795 857.527L455.676 858.012C454.045 857.613 452.419 857.201 450.799 856.776L450.926 856.293C449.301 855.866 447.682 855.427 446.068 854.975L445.933 855.456C444.317 855.003 442.706 854.537 441.101 854.057L441.244 853.578C439.638 853.099 438.037 852.606 436.442 852.101L436.291 852.578C434.688 852.07 433.09 851.549 431.499 851.015L431.658 850.541C430.069 850.008 428.486 849.463 426.91 848.905L426.743 849.376C425.16 848.815 423.583 848.242 422.012 847.656L422.187 847.188C420.614 846.601 419.048 846.002 417.488 845.39L417.306 845.856C415.743 845.243 414.187 844.617 412.638 843.979L412.828 843.517C411.277 842.879 409.733 842.228 408.196 841.565L407.998 842.024C406.455 841.358 404.919 840.68 403.389 839.99L403.595 839.534C402.068 838.845 400.548 838.143 399.034 837.43L398.821 837.882C397.302 837.165 395.789 836.437 394.284 835.696L394.505 835.247C393 834.507 391.503 833.754 390.012 832.989L389.784 833.434C388.291 832.668 386.805 831.89 385.327 831.1L385.563 830.659C384.084 829.868 382.612 829.066 381.148 828.252L380.905 828.689C379.437 827.873 377.977 827.044 376.524 826.205L376.774 825.772C375.324 824.934 373.882 824.084 372.447 823.222L372.189 823.651C370.749 822.786 369.317 821.909 367.893 821.021L368.157 820.597C366.735 819.71 365.32 818.812 363.914 817.902L363.642 818.322C362.233 817.411 360.833 816.488 359.44 815.555L359.719 815.139C358.326 814.205 356.941 813.26 355.565 812.303L355.28 812.714C353.901 811.756 352.531 810.787 351.169 809.806L351.462 809.401C350.102 808.422 348.751 807.432 347.409 806.431L347.11 806.832C345.764 805.828 344.426 804.814 343.097 803.788L343.402 803.392C342.076 802.368 340.758 801.334 339.449 800.289L339.137 800.679C337.825 799.632 336.523 798.574 335.23 797.506L335.548 797.12C334.256 796.053 332.972 794.975 331.698 793.886L331.374 794.266C330.098 793.176 328.831 792.076 327.573 790.964L327.904 790.59C326.649 789.48 325.402 788.361 324.166 787.231L323.828 787.6C322.589 786.468 321.359 785.325 320.139 784.173L320.482 783.81C319.264 782.659 318.056 781.498 316.857 780.328L316.508 780.686C315.307 779.513 314.116 778.331 312.935 777.139L313.29 776.787C312.111 775.597 310.941 774.397 309.782 773.187L309.421 773.533C308.26 772.321 307.109 771.1 305.968 769.869L306.334 769.529C305.195 768.3 304.067 767.062 302.948 765.814L302.576 766.148C301.456 764.899 300.346 763.64 299.246 762.372L299.624 762.044C298.527 760.778 297.439 759.503 296.363 758.219L295.98 758.54C294.902 757.254 293.834 755.959 292.778 754.655L293.166 754.34C292.112 753.038 291.068 751.728 290.035 750.409L289.641 750.717C288.606 749.395 287.583 748.065 286.57 746.726L286.968 746.424C285.958 745.089 284.959 743.744 283.97 742.392L283.567 742.686C282.577 741.332 281.598 739.968 280.631 738.596L281.039 738.308C280.073 736.939 279.119 735.561 278.176 734.175L277.762 734.456C276.819 733.07 275.887 731.675 274.966 730.272L275.384 729.998C274.465 728.597 273.557 727.189 272.661 725.772L272.239 726.04C271.341 724.621 270.456 723.194 269.581 721.76L270.008 721.5C269.137 720.071 268.278 718.633 267.431 717.189L266.999 717.442C266.151 715.995 265.313 714.54 264.488 713.077L264.924 712.832C264.1 711.372 263.289 709.905 262.489 708.431L262.05 708.669C261.251 707.196 260.464 705.715 259.689 704.227L260.132 703.996C259.359 702.51 258.597 701.017 257.848 699.517L257.401 699.741C256.651 698.239 255.913 696.731 255.188 695.216L255.639 695C254.917 693.491 254.207 691.974 253.509 690.451L253.055 690.66C252.356 689.134 251.67 687.602 250.996 686.063L251.454 685.862C250.783 684.328 250.124 682.787 249.477 681.239L249.016 681.432C248.37 679.886 247.737 678.333 247.116 676.774L247.581 676.589C246.961 675.033 246.354 673.47 245.76 671.901L245.293 672.078C244.699 670.509 244.118 668.935 243.55 667.354L244.021 667.185C243.455 665.611 242.902 664.031 242.363 662.444L241.889 662.605C241.349 661.017 240.821 659.422 240.306 657.821L240.782 657.668C240.27 656.075 239.771 654.476 239.285 652.871L238.806 653.016C238.321 651.413 237.848 649.804 237.389 648.19L237.87 648.053C237.411 646.441 236.966 644.824 236.534 643.201L236.051 643.33C235.62 641.711 235.202 640.086 234.797 638.456L235.283 638.336C234.88 636.713 234.49 635.085 234.114 633.452L233.627 633.564C233.25 631.928 232.887 630.287 232.537 628.641L233.026 628.537C232.679 626.902 232.344 625.261 232.024 623.615L231.533 623.711C231.213 622.067 230.906 620.419 230.612 618.766L231.105 618.679C230.812 617.029 230.533 615.374 230.267 613.714L229.773 613.793C229.509 612.14 229.258 610.482 229.02 608.819L229.515 608.749C229.279 607.094 229.056 605.436 228.847 603.773L228.351 603.835C228.142 602.169 227.946 600.499 227.764 598.825L228.261 598.771C228.081 597.109 227.914 595.444 227.761 593.774L227.263 593.82C227.11 592.153 226.971 590.483 226.845 588.809L227.344 588.771C227.219 587.1 227.107 585.425 227.01 583.746L226.511 583.775C226.413 582.104 226.33 580.429 226.261 578.75L226.76 578.729C226.691 577.061 226.636 575.389 226.594 573.714L226.094 573.726C226.052 572.048 226.024 570.367 226.01 568.682L226.51 568.678C226.503 567.837 226.5 566.995 226.5 566.153C226.5 565.31 226.503 564.468 226.51 563.627L226.01 563.623C226.024 561.938 226.052 560.257 226.094 558.579L226.594 558.592C226.636 556.916 226.691 555.245 226.76 553.576L226.26 553.556C226.33 551.877 226.413 550.202 226.511 548.53L227.01 548.559C227.107 546.88 227.219 545.205 227.344 543.534L226.845 543.497C226.971 541.823 227.11 540.152 227.263 538.486L227.761 538.532C227.914 536.862 228.081 535.196 228.261 533.534L227.764 533.48C227.946 531.806 228.142 530.136 228.351 528.471L228.847 528.533C229.056 526.87 229.279 525.211 229.515 523.557L229.02 523.486C229.258 521.824 229.509 520.166 229.773 518.512L230.267 518.591C230.533 516.932 230.812 515.277 231.105 513.627L230.612 513.539C230.906 511.886 231.213 510.238 231.533 508.594L232.024 508.69C232.344 507.045 232.679 505.404 233.026 503.768L232.537 503.664C232.887 502.018 233.25 500.377 233.627 498.742L234.114 498.854C234.49 497.221 234.88 495.593 235.282 493.97L234.797 493.849C235.202 492.22 235.62 490.595 236.051 488.975L236.534 489.104C236.966 487.482 237.411 485.864 237.87 484.253L237.389 484.116C237.848 482.501 238.321 480.893 238.806 479.289L239.285 479.434C239.771 477.83 240.27 476.23 240.782 474.637L240.306 474.484C240.821 472.883 241.349 471.289 241.889 469.7L242.363 469.861C242.902 468.275 243.455 466.695 244.021 465.121L243.55 464.952C244.118 463.371 244.699 461.796 245.293 460.228L245.76 460.405C246.354 458.836 246.961 457.273 247.581 455.716L247.116 455.531C247.737 453.972 248.37 452.419 249.016 450.873L249.477 451.066C250.124 449.519 250.783 447.978 251.454 446.443L250.996 446.243C251.67 444.704 252.356 443.171 253.055 441.646L253.509 441.854C254.207 440.331 254.917 438.815 255.639 437.306L255.188 437.09C255.913 435.575 256.651 434.066 257.401 432.565L257.848 432.788C258.597 431.288 259.359 429.795 260.132 428.31L259.689 428.079C260.464 426.591 261.251 425.11 262.05 423.636L262.489 423.875C263.289 422.4 264.1 420.933 264.924 419.474L264.488 419.228C265.313 417.766 266.15 416.311 266.999 414.864L267.431 415.117C268.278 413.672 269.137 412.235 270.008 410.806L269.581 410.545C270.455 409.111 271.341 407.684 272.239 406.266L272.661 406.533C273.557 405.117 274.465 403.708 275.384 402.308L274.966 402.033C275.887 400.631 276.819 399.236 277.762 397.849L278.176 398.131C279.119 396.745 280.073 395.367 281.039 393.997L280.631 393.709C281.598 392.337 282.577 390.974 283.566 389.619L283.97 389.914C284.959 388.561 285.958 387.217 286.968 385.881L286.57 385.58C287.582 384.24 288.606 382.91 289.641 381.589L290.035 381.897C291.068 380.578 292.112 379.267 293.166 377.965L292.778 377.651C293.834 376.347 294.902 375.052 295.98 373.766L296.363 374.087C297.439 372.803 298.526 371.527 299.624 370.261L299.246 369.934C300.346 368.666 301.455 367.407 302.576 366.157L302.948 366.491C304.066 365.243 305.195 364.005 306.334 362.777L305.967 362.437C307.108 361.206 308.26 359.984 309.421 358.773L309.782 359.119C310.941 357.909 312.11 356.709 313.29 355.519L312.935 355.167C314.116 353.974 315.307 352.792 316.508 351.62L316.857 351.977C318.056 350.807 319.264 349.646 320.482 348.496L320.139 348.132C321.359 346.98 322.589 345.838 323.828 344.705L324.165 345.075C325.402 343.945 326.648 342.825 327.904 341.716L327.573 341.341C328.831 340.23 330.097 339.129 331.373 338.039L331.698 338.419C332.972 337.331 334.256 336.253 335.548 335.185L335.229 334.799C336.523 333.731 337.825 332.673 339.137 331.626L339.449 332.017C340.757 330.972 342.075 329.937 343.402 328.913L343.097 328.517C344.426 327.492 345.763 326.477 347.11 325.473L347.409 325.874C348.751 324.874 350.102 323.884 351.461 322.905L351.169 322.499C352.531 321.519 353.901 320.55 355.28 319.591L355.565 320.002C356.941 319.046 358.326 318.1 359.718 317.166L359.44 316.751C360.832 315.817 362.233 314.895 363.642 313.983L363.913 314.403C365.32 313.493 366.735 312.595 368.157 311.708L367.893 311.284C369.317 310.396 370.749 309.52 372.189 308.655L372.447 309.084C373.881 308.222 375.324 307.372 376.774 306.534L376.524 306.101C377.977 305.261 379.437 304.433 380.905 303.617L381.148 304.054C382.612 303.24 384.084 302.437 385.563 301.647L385.327 301.206C386.805 300.416 388.291 299.638 389.784 298.872L390.012 299.317C391.503 298.552 393 297.799 394.505 297.058L394.284 296.61C395.789 295.869 397.302 295.14 398.821 294.424L399.034 294.876C400.547 294.162 402.068 293.461 403.595 292.771L403.389 292.316C404.918 291.625 406.455 290.947 407.998 290.282L408.196 290.741C409.733 290.077 411.277 289.427 412.828 288.788L412.637 288.326C414.187 287.688 415.743 287.063 417.305 286.45L417.488 286.915C419.048 286.304 420.614 285.704 422.186 285.118L422.012 284.649C423.582 284.063 425.159 283.49 426.742 282.93L426.909 283.401C428.486 282.843 430.069 282.297 431.658 281.764L431.499 281.29C433.09 280.756 434.688 280.236 436.291 279.728L436.442 280.204C438.037 279.699 439.637 279.207 441.244 278.727L441.101 278.248C442.706 277.769 444.317 277.303 445.933 276.849L446.068 277.331C447.682 276.878 449.301 276.439 450.926 276.013L450.799 275.529C452.419 275.104 454.045 274.692 455.676 274.293L455.795 274.779C457.419 274.382 459.048 273.997 460.683 273.626L460.572 273.139C462.21 272.767 463.852 272.409 465.499 272.064L465.602 272.553C467.238 272.211 468.879 271.881 470.525 271.565L470.431 271.074C472.075 270.758 473.725 270.456 475.379 270.166L475.465 270.659C477.116 270.37 478.772 270.095 480.432 269.833L480.354 269.339C482.008 269.078 483.666 268.831 485.329 268.597L485.398 269.092C487.053 268.859 488.713 268.64 490.376 268.433L490.315 267.937C491.981 267.731 493.652 267.538 495.326 267.359L495.38 267.856C497.041 267.678 498.707 267.513 500.377 267.363L500.332 266.865C501.998 266.714 503.669 266.577 505.343 266.453L505.38 266.952C507.052 266.828 508.727 266.719 510.406 266.622L510.377 266.123C512.049 266.028 513.724 265.945 515.402 265.877L515.423 266.376C517.091 266.308 518.763 266.254 520.438 266.213L520.426 265.713C522.104 265.672 523.786 265.644 525.47 265.63L525.474 266.13C526.315 266.124 527.157 266.12 528 266.12C528.843 266.12 529.684 266.124 530.525 266.13L530.53 265.63C532.214 265.644 533.896 265.672 535.574 265.713L535.561 266.213C537.237 266.254 538.909 266.308 540.577 266.376L540.598 265.877C542.276 265.945 543.951 266.028 545.622 266.123L545.594 266.622C547.273 266.719 548.948 266.828 550.62 266.952L550.657 266.453C552.331 266.577 554.002 266.714 555.668 266.865L555.623 267.363C557.293 267.513 558.959 267.678 560.62 267.856L560.674 267.359C562.348 267.538 564.019 267.731 565.685 267.937L565.624 268.433C567.287 268.639 568.947 268.859 570.602 269.092L570.671 268.597C572.334 268.831 573.992 269.078 575.646 269.339L575.568 269.833C577.228 270.095 578.884 270.37 580.535 270.659L580.621 270.166C582.275 270.456 583.925 270.758 585.569 271.074L585.475 271.565C587.121 271.881 588.762 272.211 590.398 272.553L590.501 272.064C592.148 272.409 593.79 272.767 595.428 273.139L595.317 273.626C596.952 273.997 598.581 274.382 600.205 274.779L600.324 274.293C601.955 274.692 603.581 275.104 605.201 275.529L605.074 276.013C606.699 276.439 608.318 276.878 609.932 277.331L610.067 276.849C611.683 277.303 613.294 277.769 614.899 278.248L614.756 278.727C616.363 279.207 617.963 279.699 619.558 280.204L619.709 279.728C621.312 280.235 622.91 280.756 624.501 281.29L624.342 281.764C625.931 282.297 627.514 282.842 629.091 283.401L629.257 282.929C630.84 283.49 632.417 284.063 633.988 284.649L633.813 285.118C635.386 285.704 636.952 286.303 638.512 286.915L638.694 286.45C640.257 287.063 641.813 287.688 643.362 288.326L643.172 288.788C644.723 289.427 646.267 290.077 647.804 290.741L648.002 290.281C649.545 290.947 651.081 291.625 652.611 292.316L652.405 292.771C653.932 293.46 655.453 294.162 656.966 294.876L657.179 294.423C658.698 295.14 660.211 295.869 661.716 296.61L661.495 297.058C663 297.799 664.497 298.552 665.988 299.316L666.216 298.872C667.709 299.638 669.195 300.416 670.673 301.206L670.437 301.647C671.916 302.437 673.388 303.239 674.852 304.054L675.095 303.617C676.563 304.433 678.023 305.261 679.476 306.101L679.226 306.533C680.676 307.372 682.118 308.222 683.553 309.083L683.811 308.655C685.251 309.52 686.683 310.396 688.107 311.284L687.843 311.708C689.265 312.595 690.68 313.493 692.086 314.403L692.358 313.983C693.767 314.894 695.168 315.817 696.56 316.751L696.281 317.166C697.674 318.1 699.059 319.045 700.435 320.002L700.72 319.591C702.099 320.549 703.469 321.519 704.831 322.499L704.538 322.905C705.898 323.884 707.249 324.873 708.591 325.874L708.89 325.473C710.237 326.477 711.574 327.492 712.903 328.517L712.598 328.913C713.925 329.937 715.242 330.971 716.551 332.017L716.863 331.626C718.175 332.673 719.477 333.731 720.771 334.799L720.452 335.185C721.744 336.252 723.028 337.331 724.302 338.419L724.626 338.039C725.903 339.129 727.169 340.23 728.427 341.341L728.096 341.716C729.351 342.825 730.598 343.945 731.834 345.074L732.172 344.705C733.411 345.838 734.641 346.98 735.861 348.132L735.518 348.496C736.736 349.646 737.944 350.807 739.143 351.977L739.492 351.62C740.693 352.792 741.884 353.974 743.065 355.167L742.71 355.518C743.889 356.709 745.059 357.909 746.218 359.119L746.579 358.773C747.74 359.984 748.892 361.206 750.032 362.437L749.666 362.776C750.805 364.005 751.934 365.243 753.052 366.491L753.424 366.157C754.544 367.407 755.654 368.666 756.754 369.934L756.376 370.261C757.474 371.527 758.561 372.802 759.637 374.087L760.02 373.766C761.098 375.052 762.166 376.347 763.222 377.651L762.834 377.965C763.888 379.267 764.932 380.577 765.965 381.897L766.359 381.588C767.394 382.91 768.417 384.24 769.43 385.579L769.032 385.881C770.042 387.217 771.041 388.561 772.03 389.914L772.433 389.619C773.423 390.974 774.402 392.337 775.369 393.709L774.961 393.997C775.927 395.367 776.881 396.744 777.824 398.131L778.238 397.849C779.181 399.236 780.113 400.63 781.034 402.033L780.616 402.308C781.535 403.708 782.443 405.116 783.339 406.533L783.761 406.266C784.659 407.684 785.545 409.111 786.419 410.545L785.992 410.806C786.863 412.235 787.722 413.672 788.569 415.117L789.001 414.864C789.849 416.311 790.687 417.766 791.512 419.228L791.076 419.474C791.9 420.933 792.711 422.4 793.511 423.874L793.95 423.636C794.749 425.11 795.536 426.59 796.311 428.079L795.868 428.31C796.641 429.795 797.403 431.288 798.152 432.788L798.599 432.565C799.349 434.066 800.087 435.574 800.812 437.09L800.361 437.306C801.083 438.815 801.793 440.331 802.491 441.854L802.945 441.646C803.644 443.171 804.33 444.704 805.004 446.243L804.546 446.443C805.217 447.977 805.876 449.518 806.523 451.066L806.984 450.873C807.63 452.419 808.263 453.972 808.884 455.531L808.419 455.716C809.039 457.273 809.646 458.835 810.24 460.405L810.707 460.228C811.301 461.796 811.882 463.371 812.45 464.952L811.979 465.121C812.545 466.695 813.098 468.275 813.638 469.861L814.111 469.7C814.651 471.289 815.179 472.883 815.694 474.484L815.218 474.637C815.73 476.23 816.229 477.829 816.715 479.434L817.194 479.289C817.679 480.892 818.152 482.501 818.611 484.116L818.13 484.253C818.589 485.864 819.034 487.481 819.466 489.104L819.949 488.975C820.38 490.595 820.798 492.219 821.203 493.849L820.718 493.97C821.12 495.593 821.51 497.221 821.886 498.854L822.373 498.741C822.75 500.377 823.113 502.018 823.463 503.664L822.974 503.768C823.321 505.404 823.656 507.045 823.976 508.69L824.467 508.594C824.787 510.238 825.094 511.886 825.388 513.539L824.895 513.627C825.188 515.277 825.467 516.932 825.733 518.591L826.227 518.512C826.491 520.166 826.742 521.824 826.98 523.486L826.485 523.557C826.721 525.211 826.944 526.87 827.153 528.533L827.649 528.47C827.858 530.136 828.054 531.806 828.236 533.48L827.739 533.534C827.919 535.196 828.086 536.862 828.24 538.531L828.737 538.486C828.89 540.152 829.029 541.822 829.155 543.497L828.656 543.534C828.781 545.205 828.893 546.88 828.99 548.559L829.49 548.53C829.587 550.202 829.67 551.877 829.74 553.555L829.24 553.576C829.309 555.244 829.365 556.916 829.406 558.591L829.906 558.579C829.948 560.257 829.976 561.938 829.99 563.623L829.49 563.627C829.497 564.468 829.5 565.31 829.5 566.153C829.5 566.995 829.497 567.837 829.49 568.678L829.99 568.682C829.976 570.367 829.948 572.048 829.906 573.726L829.406 573.714C829.365 575.389 829.309 577.061 829.24 578.729L829.74 578.75C829.67 580.428 829.587 582.104 829.49 583.775L828.99 583.746C828.893 585.425 828.781 587.1 828.656 588.771L829.155 588.809C829.029 590.483 828.89 592.153 828.737 593.819L828.24 593.774C828.086 595.443 827.919 597.109 827.739 598.771L828.236 598.825C828.054 600.499 827.858 602.169 827.649 603.835L827.153 603.772C826.944 605.435 826.721 607.094 826.485 608.749L826.98 608.819C826.742 610.482 826.491 612.14 826.227 613.793L825.733 613.714C825.467 615.374 825.188 617.028 824.895 618.679L825.388 618.766C825.094 620.419 824.788 622.067 824.467 623.711L823.976 623.615C823.656 625.261 823.321 626.901 822.974 628.537L823.463 628.641C823.113 630.287 822.75 631.928 822.373 633.564L821.886 633.452C821.51 635.085 821.12 636.713 820.718 638.335L821.203 638.456C820.798 640.086 820.38 641.711 819.949 643.33L819.466 643.201C819.034 644.824 818.589 646.441 818.13 648.053L818.611 648.19C818.152 649.804 817.679 651.413 817.194 653.016L816.715 652.871C816.229 654.476 815.73 656.075 815.218 657.668L815.694 657.821C815.179 659.422 814.652 661.017 814.111 662.605L813.638 662.444C813.098 664.03 812.545 665.611 811.979 667.185L812.45 667.354C811.882 668.935 811.301 670.509 810.707 672.078L810.24 671.901C809.646 673.47 809.039 675.033 808.419 676.589L808.884 676.774C808.264 678.333 807.63 679.886 806.984 681.432L806.523 681.239C805.877 682.787 805.217 684.328 804.546 685.862L805.004 686.063C804.33 687.602 803.644 689.134 802.945 690.659L802.491 690.451C801.793 691.974 801.083 693.49 800.361 695L800.812 695.215C800.087 696.731 799.349 698.239 798.599 699.74L798.152 699.517C797.403 701.017 796.641 702.51 795.868 703.996L796.311 704.227C795.536 705.715 794.749 707.196 793.95 708.669L793.511 708.431C792.711 709.905 791.9 711.372 791.076 712.831L791.512 713.077C790.687 714.54 789.85 715.994 789.001 717.442L788.569 717.189C787.722 718.633 786.863 720.07 785.992 721.5L786.419 721.76C785.545 723.194 784.659 724.621 783.761 726.04L783.339 725.772C782.443 727.189 781.535 728.597 780.616 729.998L781.034 730.272C780.113 731.675 779.181 733.069 778.238 734.456L777.825 734.175C776.881 735.561 775.927 736.939 774.961 738.308L775.369 738.596C774.402 739.968 773.423 741.331 772.434 742.686L772.03 742.391C771.042 743.744 770.042 745.089 769.032 746.424L769.431 746.726C768.418 748.065 767.394 749.395 766.359 750.717L765.965 750.408C764.932 751.728 763.888 753.038 762.834 754.34L763.222 754.655C762.166 755.959 761.098 757.254 760.021 758.54L759.637 758.218C758.561 759.503 757.474 760.778 756.376 762.044L756.754 762.372C755.654 763.64 754.545 764.899 753.424 766.148L753.052 765.814C751.934 767.062 750.805 768.3 749.666 769.529L750.033 769.869C748.892 771.1 747.74 772.321 746.579 773.533L746.218 773.187C745.059 774.396 743.89 775.596 742.71 776.787L743.065 777.139C741.884 778.331 740.693 779.513 739.493 780.686L739.143 780.328C737.945 781.498 736.736 782.659 735.518 783.809L735.861 784.173C734.641 785.325 733.411 786.468 732.172 787.6L731.835 787.231C730.598 788.361 729.352 789.48 728.096 790.59L728.427 790.964C727.169 792.075 725.903 793.176 724.627 794.266L724.302 793.886C723.028 794.975 721.745 796.053 720.452 797.12L720.771 797.506C719.477 798.574 718.175 799.632 716.864 800.679L716.552 800.289C715.243 801.334 713.925 802.368 712.598 803.392L712.903 803.788C711.574 804.814 710.237 805.828 708.89 806.832L708.591 806.431C707.249 807.432 705.898 808.422 704.539 809.4L704.831 809.806C703.469 810.787 702.099 811.756 700.72 812.714L700.435 812.303C699.059 813.26 697.674 814.205 696.282 815.139L696.56 815.554C695.168 816.488 693.767 817.411 692.358 818.322L692.087 817.902C690.68 818.812 689.265 819.71 687.843 820.597L688.107 821.021C686.683 821.909 685.251 822.786 683.811 823.651L683.553 823.222C682.119 824.083 680.676 824.933 679.226 825.772L679.476 826.205C678.023 827.044 676.563 827.872 675.095 828.689L674.852 828.252C673.388 829.066 671.917 829.868 670.437 830.659L670.673 831.1C669.195 831.89 667.709 832.668 666.216 833.434L665.988 832.989C664.498 833.754 663 834.506 661.495 835.247L661.716 835.696C660.211 836.437 658.699 837.165 657.179 837.882L656.966 837.43C655.453 838.143 653.932 838.845 652.405 839.534L652.611 839.99C651.082 840.68 649.545 841.358 648.002 842.024L647.804 841.565C646.267 842.228 644.723 842.879 643.172 843.517L643.363 843.979C641.813 844.617 640.257 845.243 638.695 845.855L638.512 845.39C636.952 846.002 635.386 846.601 633.814 847.188L633.988 847.656C632.418 848.242 630.841 848.815 629.258 849.376L629.091 848.905C627.514 849.463 625.931 850.008 624.342 850.541L624.501 851.015C622.91 851.549 621.312 852.07 619.709 852.578L619.558 852.101C617.963 852.606 616.363 853.099 614.756 853.578L614.899 854.057C613.294 854.537 611.683 855.003 610.067 855.456L609.932 854.974C608.318 855.427 606.699 855.866 605.074 856.292L605.201 856.776C603.581 857.201 601.955 857.613 600.324 858.012L600.206 857.526C598.581 857.924 596.952 858.308 595.317 858.679L595.428 859.167C593.79 859.538 592.148 859.896 590.501 860.241L590.398 859.752C588.762 860.095 587.121 860.424 585.475 860.74L585.569 861.231C583.925 861.547 582.275 861.85 580.621 862.139L580.535 861.646C578.884 861.935 577.228 862.21 575.568 862.472L575.646 862.966C573.992 863.227 572.334 863.474 570.671 863.708L570.602 863.213C568.947 863.446 567.287 863.666 565.624 863.872L565.685 864.368C564.019 864.575 562.348 864.767 560.674 864.947L560.621 864.45C558.959 864.628 557.293 864.792 555.624 864.943L555.669 865.441C554.002 865.591 552.331 865.729 550.657 865.852L550.62 865.354C548.949 865.477 547.273 865.587 545.594 865.683L545.623 866.182C543.951 866.278 542.276 866.36 540.598 866.429L540.577 865.929C538.909 865.997 537.237 866.052 535.562 866.093L535.574 866.593C533.896 866.634 532.214 866.661 530.53 866.675L530.526 866.175C529.685 866.182 528.843 866.185 528 866.185Z" stroke="#F84D35" stroke-dasharray="5 5"/>
</g>
</svg>
