<svg width="920" height="573" viewBox="0 0 920 573" fill="none" xmlns="http://www.w3.org/2000/svg">
<g opacity="0.4">
<path d="M0.80903 572.5L256 62.118L511.191 572.5H0.80903Z" stroke="#9A9A9A"/>
<path d="M660.182 7.63509L663.326 1.34737L663.774 1.57098L664 1.11804L664.226 1.57087L664.674 1.34726L667.818 7.63501L667.37 7.85862L668.718 10.5533L669.165 10.3297L672.309 16.6175L671.862 16.8411L673.209 19.5358L673.656 19.3122L676.8 25.6L676.353 25.8236L677.7 28.5183L678.147 28.2947L681.291 34.5825L680.844 34.8061L682.191 37.5008L682.639 37.2772L685.782 43.5649L685.335 43.7885L686.683 46.4833L687.13 46.2597L690.274 52.5474L689.827 52.771L691.174 55.4658L691.621 55.2422L694.765 61.5299L694.318 61.7535L695.665 64.4482L696.112 64.2246L699.256 70.5124L698.809 70.736L700.156 73.4307L700.604 73.2071L703.747 79.4948L703.3 79.7184L704.648 82.4132L705.095 82.1895L708.239 88.4773L707.791 88.7009L709.139 91.3956L709.586 91.172L712.73 97.4597L712.283 97.6833L713.63 100.378L714.077 100.154L717.221 106.442L716.774 106.666L718.121 109.361L718.568 109.137L721.712 115.425L721.265 115.648L722.612 118.343L723.06 118.119L726.204 124.407L725.756 124.631L727.104 127.325L727.551 127.102L730.695 133.39L730.248 133.613L731.595 136.308L732.042 136.084L735.186 142.372L734.739 142.596L736.086 145.29L736.533 145.067L739.677 151.354L739.23 151.578L740.577 154.273L741.025 154.049L744.168 160.337L743.721 160.561L745.069 163.255L745.516 163.032L748.66 169.319L748.212 169.543L749.56 172.238L750.007 172.014L753.151 178.302L752.704 178.525L754.051 181.22L754.498 180.997L757.642 187.284L757.195 187.508L758.542 190.203L758.99 189.979L762.133 196.267L761.686 196.49L763.034 199.185L763.481 198.962L766.625 205.249L766.177 205.473L767.525 208.168L767.972 207.944L771.116 214.232L770.669 214.455L772.016 217.15L772.463 216.926L775.607 223.214L775.16 223.438L776.507 226.133L776.954 225.909L780.098 232.197L779.651 232.42L780.998 235.115L781.446 234.891L784.59 241.179L784.142 241.403L785.49 244.097L785.937 243.874L789.081 250.162L788.634 250.385L789.981 253.08L790.428 252.856L793.572 259.144L793.125 259.368L794.472 262.062L794.919 261.839L798.063 268.126L797.616 268.35L798.963 271.045L799.411 270.821L802.554 277.109L802.107 277.333L803.455 280.027L803.902 279.804L807.046 286.091L806.598 286.315L807.946 289.01L808.393 288.786L811.537 295.074L811.09 295.297L812.437 297.992L812.884 297.769L816.028 304.056L815.581 304.28L816.928 306.975L817.375 306.751L820.519 313.039L820.072 313.262L821.419 315.957L821.867 315.733L825.011 322.021L824.563 322.245L825.911 324.939L826.358 324.716L829.502 331.004L829.055 331.227L830.402 333.922L830.849 333.698L833.993 339.986L833.546 340.21L834.893 342.904L835.34 342.681L838.484 348.968L838.037 349.192L839.384 351.887L839.832 351.663L842.975 357.951L842.528 358.175L843.876 360.869L844.323 360.646L847.467 366.933L847.019 367.157L848.367 369.852L848.814 369.628L851.958 375.916L851.511 376.139L852.858 378.834L853.305 378.611L856.449 384.898L856.002 385.122L857.349 387.817L857.797 387.593L860.94 393.881L860.493 394.104L861.84 396.799L862.288 396.575L865.432 402.863L864.984 403.087L866.332 405.781L866.779 405.558L869.923 411.846L869.476 412.069L870.823 414.764L871.27 414.54L874.414 420.828L873.967 421.052L875.314 423.746L875.761 423.523L878.905 429.811L878.458 430.034L879.805 432.729L880.253 432.505L883.396 438.793L882.949 439.017L884.297 441.711L884.744 441.488L887.888 447.775L887.44 447.999L888.788 450.694L889.235 450.47L892.379 456.758L891.932 456.982L893.279 459.676L893.726 459.453L896.87 465.74L896.423 465.964L897.77 468.659L898.218 468.435L901.361 474.723L900.914 474.946L902.262 477.641L902.709 477.418L905.853 483.705L905.405 483.929L906.753 486.624L907.2 486.4L910.344 492.688L909.897 492.911L911.244 495.606L911.691 495.382L914.835 501.67L914.388 501.894L915.735 504.589L916.182 504.365L919.326 510.653L918.879 510.876L919.191 511.5H918.495V512H911.467V511.5H908.456V512H901.428V511.5H898.416V512H891.389V511.5H888.377V512H881.35V511.5H878.338V512H871.31V511.5H868.299V512H861.271V511.5H858.259V512H851.232V511.5H848.22V512H841.193V511.5H838.181V512H831.153V511.5H828.142V512H821.114V511.5H818.102V512H811.075V511.5H808.063V512H801.036V511.5H798.024V512H790.996V511.5H787.985V512H780.957V511.5H777.945V512H770.918V511.5H767.906V512H760.879V511.5H757.867V512H750.839V511.5H747.828V512H740.8V511.5H737.788V512H730.761V511.5H727.749V512H720.722V511.5H717.71V512H710.682V511.5H707.671V512H700.643V511.5H697.631V512H690.604V511.5H687.592V512H680.565V511.5H677.553V512H670.526V511.5H667.514V512H660.486V511.5H657.475V512H650.447V511.5H647.435V512H640.408V511.5H637.396V512H630.369V511.5H627.357V512H620.329V511.5H617.318V512H610.29V511.5H607.278V512H600.251V511.5H597.239V512H590.212V511.5H587.2V512H580.173V511.5H577.161V512H570.133V511.5H567.122V512H560.094V511.5H557.082V512H550.055V511.5H547.043V512H540.016V511.5H537.004V512H529.976V511.5H526.965V512H519.937V511.5H516.925V512H509.898V511.5H506.886V512H499.859V511.5H496.847V512H489.82V511.5H486.808V512H479.78V511.5H476.769V512H469.741V511.5H466.729V512H459.702V511.5H456.69V512H449.663V511.5H446.651V512H439.624V511.5H436.612V512H429.584V511.5H426.573V512H419.545V511.5H416.533V512H409.506V511.5H408.809L409.121 510.876L408.674 510.653L411.818 504.365L412.265 504.589L413.612 501.894L413.165 501.67L416.309 495.383L416.756 495.606L418.103 492.911L417.656 492.688L420.8 486.4L421.247 486.624L422.595 483.929L422.147 483.705L425.291 477.418L425.738 477.641L427.086 474.946L426.639 474.723L429.782 468.435L430.23 468.659L431.577 465.964L431.13 465.74L434.274 459.453L434.721 459.676L436.068 456.981L435.621 456.758L438.765 450.47L439.212 450.694L440.56 447.999L440.112 447.775L443.256 441.488L443.703 441.711L445.051 439.017L444.604 438.793L447.747 432.505L448.195 432.729L449.542 430.034L449.095 429.81L452.239 423.523L452.686 423.746L454.033 421.052L453.586 420.828L456.73 414.54L457.177 414.764L458.524 412.069L458.077 411.846L461.221 405.558L461.668 405.781L463.016 403.087L462.568 402.863L465.712 396.575L466.16 396.799L467.507 394.104L467.06 393.881L470.204 387.593L470.651 387.816L471.998 385.122L471.551 384.898L474.695 378.61L475.142 378.834L476.489 376.139L476.042 375.916L479.186 369.628L479.633 369.852L480.981 367.157L480.533 366.933L483.677 360.646L484.124 360.869L485.472 358.174L485.025 357.951L488.168 351.663L488.616 351.887L489.963 349.192L489.516 348.968L492.66 342.681L493.107 342.904L494.454 340.209L494.007 339.986L497.151 333.698L497.598 333.922L498.946 331.227L498.498 331.003L501.642 324.716L502.089 324.939L503.437 322.245L502.99 322.021L506.133 315.733L506.581 315.957L507.928 313.262L507.481 313.038L510.625 306.751L511.072 306.974L512.419 304.28L511.972 304.056L515.116 297.768L515.563 297.992L516.91 295.297L516.463 295.074L519.607 288.786L520.054 289.009L521.402 286.315L520.954 286.091L524.098 279.803L524.546 280.027L525.893 277.332L525.446 277.109L528.59 270.821L529.037 271.045L530.384 268.35L529.937 268.126L533.081 261.838L533.528 262.062L534.875 259.367L534.428 259.144L537.572 252.856L538.019 253.08L539.367 250.385L538.919 250.161L542.063 243.874L542.51 244.097L543.858 241.402L543.411 241.179L546.554 234.891L547.002 235.115L548.349 232.42L547.902 232.196L551.046 225.909L551.493 226.132L552.84 223.438L552.393 223.214L555.537 216.926L555.984 217.15L557.331 214.455L556.884 214.231L560.028 207.944L560.475 208.167L561.823 205.473L561.375 205.249L564.519 198.961L564.967 199.185L566.314 196.49L565.867 196.267L569.011 189.979L569.458 190.202L570.805 187.508L570.358 187.284L573.502 180.996L573.949 181.22L575.296 178.525L574.849 178.302L577.993 172.014L578.44 172.238L579.788 169.543L579.34 169.319L582.484 163.032L582.931 163.255L584.279 160.56L583.832 160.337L586.975 154.049L587.423 154.273L588.77 151.578L588.323 151.354L591.467 145.067L591.914 145.29L593.261 142.596L592.814 142.372L595.958 136.084L596.405 136.308L597.752 133.613L597.305 133.389L600.449 127.102L600.896 127.325L602.244 124.631L601.796 124.407L604.94 118.119L605.388 118.343L606.735 115.648L606.288 115.425L609.432 109.137L609.879 109.36L611.226 106.666L610.779 106.442L613.923 100.154L614.37 100.378L615.717 97.6833L615.27 97.4597L618.414 91.1719L618.861 91.3955L620.209 88.7008L619.761 88.4772L622.905 82.1895L623.352 82.4131L624.7 79.7184L624.253 79.4947L627.396 73.207L627.844 73.4306L629.191 70.7359L628.744 70.5123L631.888 64.2246L632.335 64.4482L633.682 61.7534L633.235 61.5298L636.379 55.2421L636.826 55.4657L638.174 52.771L637.726 52.5474L640.87 46.2597L641.317 46.4833L642.665 43.7885L642.218 43.5649L645.361 37.2772L645.809 37.5008L647.156 34.8061L646.709 34.5825L649.853 28.2947L650.3 28.5183L651.647 25.8236L651.2 25.6L654.344 19.3123L654.791 19.5359L656.138 16.8412L655.691 16.6175L658.835 10.3298L659.282 10.5534L660.63 7.85869L660.182 7.63509Z" stroke="#0C0B0B" stroke-dasharray="3 7"/>
</g>
</svg>
