<svg width="50" height="74" viewBox="0 0 50 74" fill="none" xmlns="http://www.w3.org/2000/svg">
<path fill-rule="evenodd" clip-rule="evenodd" d="M31.0789 54.1549H24.9996V39.0176H29.5836C34.5056 39.0663 35.9996 41.9636 35.9996 46.5865C35.9996 50.0262 35.2763 54.1541 31.0789 54.1541V54.1549ZM24.9996 23.8815C31.0634 24.0317 35.6664 22.9065 35.6664 30.888C35.6664 36.5395 33.0698 38.0086 29.3526 38.0086H24.9996V23.882V23.8815ZM16.3328 1.34506H22C27.4224 1.34506 27.6664 5.56915 27.6664 9.10461C27.6664 13.1333 26.6983 16.818 22 16.818H16.3328V1.34506ZM49.9466 67.6908C49.6332 66.0345 48.319 64.5741 46.5535 64.9167C44.9306 65.231 43.9974 66.5743 44.3112 68.2306C44.4582 69.0098 45.0543 69.5504 45.4629 69.8747C45.766 70.1707 46.2108 70.4354 46.275 71.0295C46.3086 71.4091 46.0517 71.7025 45.6901 71.9293C43.0754 73.2295 41.1944 71.1231 41.1944 69.3867C41.1944 61.3046 39.4944 57.1389 31.9151 55.9497V55.8487C32.8879 55.7442 32.6888 55.7633 33.7384 55.5701L34.5047 55.4343C35.4823 55.2397 35.9207 55.1844 36.7724 54.8958C40.175 53.7553 43.1375 51.4265 43.1375 47.0627C43.1375 41.4082 37.5022 38.8792 32.741 38.5309V38.4317C36.919 37.7874 42.0198 35.6066 42.0198 30.5463C42.0198 23.4075 34.3453 22.5626 29.0013 22.5626H16.2733V18.1008H21.8121C27.3978 18.1008 34.4914 16.0667 34.4914 9.12507C34.4914 1.28978 27.1078 0 20.9371 0H5.24526V1.24015H10.0556V22.563H5.24526V23.8032H10.0556V54.3021C10.0556 56.5329 9.47328 58.766 6.84957 58.766C6.26681 58.766 4.32328 58.7155 4.22586 57.7235C4.17716 57.1284 4.56638 56.7819 4.80862 56.4354C5.14914 56.0389 5.63448 55.3942 5.63448 54.5994C5.63448 52.9148 4.4681 51.7734 2.81767 51.7734C1.0194 51.7734 0 53.4606 0 55.1465C0 56.5821 1.11638 58.3708 2.42888 59.0137C4.03147 59.8059 5.00388 60.007 6.80086 60.007C10.6871 60.007 13.8457 57.7235 15.4487 54.2529C15.9547 53.1525 16.1806 51.9571 16.2737 50.7135V23.8032H19.1405V72.1652H14.3302V73.4045H30.1685V72.1652H25.1129V55.8996H28.0466C29.5534 55.8996 30.9466 56.2448 32.0297 57.4832C33.1323 58.7425 34.394 62.2967 34.394 66.4132C34.394 71.4696 36.9668 74 41.8741 74C42.306 74 42.7431 73.9582 43.181 73.8942C43.5086 73.8646 43.8375 73.8276 44.1694 73.7636C44.9431 73.6121 45.5547 73.4541 46.1168 73.2334V73.2313C46.8375 72.9483 47.4784 72.5631 48.2797 71.9541C49.4474 71.0718 50.2129 69.1038 49.9466 67.6913V67.6908Z" fill="#F84D35"/>
</svg>
